<svg xmlns="http://www.w3.org/2000/svg" width="224" height="214" viewBox="0 0 224 214">
  <g id="about-us-small-img" transform="translate(-660 -6474)">
    <rect id="Rectangle_710" data-name="Rectangle 710" width="224" height="214" transform="translate(660 6474)" fill="#1c2025"/>
    <text id="_15_Years_Of_Experience" data-name="15+ Years 
Of Experience" transform="translate(700 6588)" fill="#fff" font-size="21" font-family="Poppins-Medium, Poppins" font-weight="500" opacity="0.6"><tspan x="0" y="22">15+ Years </tspan><tspan x="0" y="53">Of Experience</tspan></text>
    <g id="rating" transform="translate(675.513 6509.486)">
      <path id="Path_501" data-name="Path 501" d="M115.126,37.394a18.7,18.7,0,0,0,16.6-27.336,1.173,1.173,0,0,0-2.079,1.084A16.285,16.285,0,0,1,126.7,30.265l-.044.043a11.837,11.837,0,0,0-5.247-7.58,8.108,8.108,0,1,0-12.563,0,11.839,11.839,0,0,0-5.245,7.58l-.044-.043a16.362,16.362,0,0,1,19.14-26.073,1.173,1.173,0,0,0,1.085-2.079A18.873,18.873,0,0,0,112.414.193a18.7,18.7,0,0,0,2.712,37.2Zm0-25.542a5.759,5.759,0,1,1-5.764,5.757A5.766,5.766,0,0,1,115.126,11.852Zm-4.46,12.522a8.085,8.085,0,0,0,8.918,0,9.467,9.467,0,0,1,4.948,7.711,16.407,16.407,0,0,1-18.812,0A9.469,9.469,0,0,1,110.666,24.375Z" transform="translate(-63.495 0)" fill="#fff" stroke="#1c2025" stroke-width="0.25"/>
      <path id="Path_502" data-name="Path 502" d="M352.961,46.126a1.173,1.173,0,0,0,1.048-1.7l0-.007a1.172,1.172,0,1,0-1.045,1.7Z" transform="translate(-288.926 -38.644)" fill="#fff" stroke="#1c2025" stroke-width="0.25"/>
      <path id="Path_503" data-name="Path 503" d="M184.922,343.922l-5.928-1.006-2.79-5.325a1.172,1.172,0,0,0-2.077,0l-2.79,5.325-5.932,1.006a1.173,1.173,0,0,0-.642,1.976l4.206,4.3-.873,5.946a1.173,1.173,0,0,0,1.68,1.221l5.389-2.667,5.389,2.667a1.173,1.173,0,0,0,1.68-1.221l-.873-5.946,4.2-4.3a1.172,1.172,0,0,0-.642-1.976Zm-5.643,5.049a1.173,1.173,0,0,0-.322.99l.633,4.307-3.9-1.932a1.172,1.172,0,0,0-1.04,0l-3.9,1.932.633-4.307a1.173,1.173,0,0,0-.322-.99l-3.045-3.112,4.3-.729a1.172,1.172,0,0,0,.843-.612l2.021-3.857,2.021,3.857a1.173,1.173,0,0,0,.842.612l4.293.729Z" transform="translate(-123.535 -297.455)" fill="#fff" stroke="#1c2025" stroke-width="0.25"/>
      <path id="Path_504" data-name="Path 504" d="M39.65,284.412l-4.119-.7-1.935-3.7a1.172,1.172,0,0,0-1.038-.629h0a1.173,1.173,0,0,0-1.038.628l-1.939,3.7-4.117.7a1.173,1.173,0,0,0-.642,1.976l2.919,2.985-.607,4.128a1.172,1.172,0,0,0,1.68,1.221l3.743-1.853,3.743,1.853a1.172,1.172,0,0,0,1.68-1.221l-.607-4.128,2.919-2.985a1.173,1.173,0,0,0-.642-1.976Zm-4.36,3.736a1.172,1.172,0,0,0-.322.99l.366,2.489-2.257-1.117a1.173,1.173,0,0,0-1.04,0l-2.257,1.117.366-2.489a1.173,1.173,0,0,0-.322-.99l-1.76-1.8,2.482-.422a1.173,1.173,0,0,0,.842-.611l1.169-2.229,1.167,2.229a1.173,1.173,0,0,0,.842.612l2.485.422Z" transform="translate(0 -246.63)" fill="#fff" stroke="#1c2025" stroke-width="0.25"/>
      <path id="Path_505" data-name="Path 505" d="M365.945,285.206a1.172,1.172,0,0,0-.919-.794l-4.117-.7-1.939-3.7a1.172,1.172,0,0,0-2.077,0l-1.938,3.7-4.117.7a1.173,1.173,0,0,0-.642,1.976l2.919,2.985-.607,4.128a1.172,1.172,0,0,0,1.68,1.221l3.743-1.853,3.743,1.853a1.172,1.172,0,0,0,1.68-1.221l-.607-4.128,2.919-2.985a1.173,1.173,0,0,0,.277-1.182Zm-5.279,2.943a1.173,1.173,0,0,0-.322.991l.366,2.489-2.257-1.117a1.172,1.172,0,0,0-1.04,0l-2.257,1.117.366-2.489a1.173,1.173,0,0,0-.322-.991l-1.76-1.8,2.482-.422a1.173,1.173,0,0,0,.842-.611l1.17-2.231,1.17,2.231a1.173,1.173,0,0,0,.842.611l2.482.422Z" transform="translate(-287.228 -246.63)" fill="#fff" stroke="#1c2025" stroke-width="0.25"/>
    </g>
  </g>
</svg>
