<svg xmlns="http://www.w3.org/2000/svg" width="16" height="16" viewBox="0 0 16 16">
  <g id="about-right-mark-icon" transform="translate(-1069 -1495)">
    <circle id="Ellipse_11" data-name="Ellipse 11" cx="8" cy="8" r="8" transform="translate(1069 1495)" fill="#1d53d4"/>
    <path id="check_2_" data-name="check (2)" d="M2.765,5.5a.368.368,0,0,1-.521,0L.162,3.417a.553.553,0,0,1,0-.782l.261-.261a.553.553,0,0,1,.782,0l1.3,1.3L6.016.162a.553.553,0,0,1,.782,0l.261.261a.553.553,0,0,1,0,.782Zm0,0" transform="translate(1073.39 1500.197)" fill="#fff"/>
  </g>
</svg>
