<svg xmlns="http://www.w3.org/2000/svg" width="11.303" height="20.953" viewBox="0 0 11.303 20.953">
  <g id="facebook-icon" opacity="0.5">
    <g id="facebook" transform="translate(0 0)">
      <path id="Icon_11_" d="M31.547,21.927h-2.6c-.42,0-.551-.157-.551-.551V18.2c0-.42.157-.551.551-.551h2.6V15.345a5.825,5.825,0,0,1,.708-2.963,4.351,4.351,0,0,1,2.334-1.941,5.835,5.835,0,0,1,2.019-.341h2.57c.367,0,.525.157.525.524v2.99c0,.367-.157.524-.525.524-.708,0-1.416,0-2.124.026a.947.947,0,0,0-1.075,1.075c-.026.787,0,1.547,0,2.36h3.042c.42,0,.577.157.577.577V21.35c0,.42-.131.551-.577.551H35.979V30.45c0,.446-.131.6-.6.6H32.1c-.393,0-.551-.157-.551-.551V21.927Z" transform="translate(-28.4 -10.1)" fill="#fff"/>
    </g>
  </g>
</svg>
