<svg xmlns="http://www.w3.org/2000/svg" width="16.882" height="11.87" viewBox="0 0 16.882 11.87">
  <g id="footer-mail-icon" transform="translate(0 -76)">
    <g id="Group_94" data-name="Group 94" transform="translate(0.865 82.636)">
      <g id="Group_93" data-name="Group 93">
        <path id="Path_137" data-name="Path 137" d="M36.3,277.251l-1.414,1.419a1.565,1.565,0,0,1-2.168,0L31.3,277.251l-5.078,5.095a1.469,1.469,0,0,0,.619.14H40.759a1.467,1.467,0,0,0,.619-.14Z" transform="translate(-26.226 -277.251)" fill="#fff"/>
      </g>
    </g>
    <g id="Group_96" data-name="Group 96" transform="translate(0.865 76)">
      <g id="Group_95" data-name="Group 95">
        <path id="Path_138" data-name="Path 138" d="M40.761,76H26.847a1.469,1.469,0,0,0-.619.14l5.426,5.444h0l1.764,1.77a.594.594,0,0,0,.767,0l1.764-1.77h0L41.38,76.14A1.468,1.468,0,0,0,40.761,76Z" transform="translate(-26.228 -76)" fill="#fff"/>
      </g>
    </g>
    <g id="Group_98" data-name="Group 98" transform="translate(0 76.831)">
      <g id="Group_97" data-name="Group 97">
        <path id="Path_139" data-name="Path 139" d="M.158,101.212a1.466,1.466,0,0,0-.158.652v8.9a1.465,1.465,0,0,0,.158.652l5.087-5.1Z" transform="translate(0 -101.212)" fill="#fff"/>
      </g>
    </g>
    <g id="Group_100" data-name="Group 100" transform="translate(11.637 76.831)">
      <g id="Group_99" data-name="Group 99">
        <path id="Path_140" data-name="Path 140" d="M358.02,101.21l-5.087,5.1,5.087,5.1a1.465,1.465,0,0,0,.158-.653v-8.9A1.465,1.465,0,0,0,358.02,101.21Z" transform="translate(-352.933 -101.21)" fill="#fff"/>
      </g>
    </g>
  </g>
</svg>
