<svg xmlns="http://www.w3.org/2000/svg" width="15.749" height="15.749" viewBox="0 0 15.749 15.749">
  <g id="footer-call-icon" transform="translate(-0.006 -1.793)">
    <g id="Group_92" data-name="Group 92" transform="translate(0.006 1.793)">
      <path id="Path_136" data-name="Path 136" d="M13.251,55.99a1.221,1.221,0,0,0-1.845,0c-.431.428-.863.856-1.287,1.291a.254.254,0,0,1-.355.065c-.279-.152-.576-.276-.845-.442a13.383,13.383,0,0,1-3.226-2.936,7.644,7.644,0,0,1-1.156-1.853.265.265,0,0,1,.065-.341c.431-.417.852-.845,1.276-1.272a1.225,1.225,0,0,0,0-1.889c-.337-.341-.674-.674-1.011-1.015s-.692-.7-1.044-1.044a1.228,1.228,0,0,0-1.845,0c-.435.428-.852.866-1.294,1.287a2.1,2.1,0,0,0-.66,1.417,6.006,6.006,0,0,0,.464,2.585A15.707,15.707,0,0,0,3.27,56.49a17.252,17.252,0,0,0,5.713,4.47,8.263,8.263,0,0,0,3.165.921,2.319,2.319,0,0,0,1.99-.758c.37-.413.787-.79,1.178-1.185a1.233,1.233,0,0,0,.007-1.878Q14.291,57.021,13.251,55.99Z" transform="translate(-0.006 -46.137)" fill="#fff"/>
    </g>
  </g>
</svg>
