<svg xmlns="http://www.w3.org/2000/svg" width="85" height="21.797" viewBox="0 0 85 21.797">
  <g id="gallery-arrow-icon" transform="translate(-1575 -4369)">
    <path id="Path_475" data-name="Path 475" d="M44.484,141.654l0,0L35.3,132.512A1.758,1.758,0,0,0,32.818,135l6.167,6.137H1.758a1.758,1.758,0,0,0,0,3.516H38.984l-6.167,6.137a1.758,1.758,0,0,0,2.48,2.492l9.185-9.141,0,0A1.759,1.759,0,0,0,44.484,141.654Z" transform="translate(1615 4237)" fill="#1d53d4"/>
    <path id="Path_477" data-name="Path 477" d="M.344,138.436h0l6.123-6.094A1.172,1.172,0,0,1,8.121,134L4.01,138.094H28.828a1.172,1.172,0,1,1,0,2.344H4.01l4.111,4.091a1.172,1.172,0,0,1-1.653,1.661L.345,140.1h0A1.173,1.173,0,0,1,.344,138.436Z" transform="translate(1575 4241)" fill="#1d53d4" opacity="0.5"/>
  </g>
</svg>
