<svg xmlns="http://www.w3.org/2000/svg" width="18.515" height="18.519" viewBox="0 0 18.515 18.519">
  <path id="header-btn-call-icon" d="M.461,53.213A5.792,5.792,0,0,1,.02,50.754,2.009,2.009,0,0,1,.646,49.4c.421-.4.818-.815,1.232-1.219a1.166,1.166,0,0,1,1.754,0c.333.327.663.66.993.993s.643.64.963.963a1.169,1.169,0,0,1,0,1.8c-.4.4-.8.812-1.216,1.209a.247.247,0,0,0-.061.323,7.219,7.219,0,0,0,1.1,1.761,12.612,12.612,0,0,0,3.068,2.792c.256.158.535.276.8.421a.245.245,0,0,0,.34-.064c.4-.414.812-.822,1.222-1.229a1.158,1.158,0,0,1,1.751,0q.99.98,1.97,1.97a1.171,1.171,0,0,1-.007,1.785c-.374.377-.768.734-1.118,1.128a2.219,2.219,0,0,1-1.892.721,7.863,7.863,0,0,1-3.01-.875,16.381,16.381,0,0,1-5.431-4.25A14.975,14.975,0,0,1,.461,53.213Z" transform="translate(17.291 -45.938) rotate(16)" fill="#fff"/>
</svg>
