<svg xmlns="http://www.w3.org/2000/svg" xmlns:xlink="http://www.w3.org/1999/xlink" width="720" height="607" viewBox="0 0 720 607">
  <defs>
    <clipPath id="clip-path">
      <rect id="Rectangle_709" data-name="Rectangle 709" width="720" height="607" transform="translate(260 5263)" fill="#f0f2f3"/>
    </clipPath>
    <clipPath id="clip-path-2">
      <rect width="124.051" height="20" fill="none"/>
    </clipPath>
  </defs>
  <g id="Mask_Group_2" data-name="Mask Group 2" transform="translate(-260 -5263)" clip-path="url(#clip-path)">
    <rect id="Rectangle_708" data-name="Rectangle 708" width="720" height="607" transform="translate(260 5263)" fill="#f0f2f3"/>
    <path id="quote_2_" data-name="quote (2)" d="M110.508,67.741V79.324H81.569v62.332H143.9V79.324h0V67.741c0-23.522-6.768-40.988-20.116-51.916C114.551,8.266,102.863,4.433,89.044,4.433V37.824C96.545,37.824,110.508,37.824,110.508,67.741ZM7.474,37.824V4.433c13.818,0,25.506,3.833,34.74,11.392C55.563,26.753,62.331,44.22,62.331,67.741V79.324h0v62.332H0V79.324H28.94V67.741C28.939,37.824,14.976,37.824,7.474,37.824Z" transform="translate(842.098 5758.344)" fill="#1d53d4" opacity="0.05"/>
    <text id="Headline_Text_Here" data-name="Headline Text Here" transform="translate(340 5423)" fill="#1c2025" font-size="48" font-family="Poppins-Bold, Poppins" font-weight="700"><tspan x="0" y="0">Headline Text Here</tspan></text>
    <g id="Group_719" data-name="Group 719" transform="translate(-88 -3)">
      <text id="Peter_Garfield" data-name="Peter Garfield" transform="translate(428 5697)" fill="#1c2025" font-size="21" font-family="Poppins-SemiBold, Poppins" font-weight="600"><tspan x="0" y="0">Peter Garfield</tspan></text>
      <text id="Bakersfield_CA" data-name="Bakersfield, CA" transform="translate(428 5723)" fill="#5f6265" font-size="16" font-family="Poppins-Regular, Poppins" letter-spacing="0.02em"><tspan x="0" y="0">Bakersfield, CA</tspan></text>
    </g>
    <text id="Testimonials" transform="translate(340 5360)" fill="#1d53d4" font-size="16" font-family="Poppins-Medium, Poppins" font-weight="500" letter-spacing="0.1em"><tspan x="0" y="0">TESTIMONIALS</tspan></text>
    <g id="testimonial-star-icon" transform="translate(340 5480)" clip-path="url(#clip-path-2)">
      <g transform="translate(-340 -5480)">
        <path id="Polygon_1" data-name="Polygon 1" d="M10.949,0,13.96,6.722l7.938.535-6.077,4.69L17.716,19l-6.767-3.824L4.182,19l1.9-7.053L0,7.257l7.938-.535Z" transform="translate(340 5480)" fill="#1d53d4"/>
      </g>
      <g transform="translate(-315 -5480)">
        <path id="Polygon_1-2" data-name="Polygon 1" d="M10.949,0,13.96,6.722l7.938.535-6.077,4.69L17.716,19l-6.767-3.824L4.182,19l1.9-7.053L0,7.257l7.938-.535Z" transform="translate(340 5480)" fill="#1d53d4"/>
      </g>
      <g transform="translate(-290 -5480)">
        <path id="Polygon_1-3" data-name="Polygon 1" d="M10.949,0,13.96,6.722l7.938.535-6.077,4.69L17.716,19l-6.767-3.824L4.182,19l1.9-7.053L0,7.257l7.938-.535Z" transform="translate(340 5480)" fill="#1d53d4"/>
      </g>
      <g transform="translate(-265 -5480)">
        <path id="Polygon_1-4" data-name="Polygon 1" d="M10.949,0,13.96,6.722l7.938.535-6.077,4.69L17.716,19l-6.767-3.824L4.182,19l1.9-7.053L0,7.257l7.938-.535Z" transform="translate(340 5480)" fill="#1d53d4"/>
      </g>
      <g transform="translate(-240 -5480)">
        <path id="Polygon_1-5" data-name="Polygon 1" d="M10.949,0,13.96,6.722l7.938.535-6.077,4.69L17.716,19l-6.767-3.824L4.182,19l1.9-7.053L0,7.257l7.938-.535Z" transform="translate(340 5480)" fill="#1d53d4"/>
      </g>
    </g>
    <text id="Lorem_ipsum_dolor_sit_amet_consectetur_adipiscing_elit_sed_do_eiusmod_tempor_incididunt_ut_labore_et_dolore_magna_aliqua._Ultrices_mi_tempus_imperdiet_nulla_magna_etiam." data-name="Lorem ipsum dolor sit amet, consectetur adipiscing elit, sed do eiusmod tempor incididunt ut labore et dolore magna aliqua. Ultrices mi tempus imperdiet nulla magna etiam." transform="translate(340 5525)" fill="#5f6265" font-size="21" font-family="Poppins-Regular, Poppins"><tspan x="0" y="22">Lorem ipsum dolor sit amet, consectetur adipiscing </tspan><tspan x="0" y="53">elit, sed do eiusmod tempor incididunt ut labore et </tspan><tspan x="0" y="84">dolore magna aliqua. Ultrices mi tempus imperdiet </tspan><tspan x="0" y="115">nulla magna etiam.</tspan></text>
    <g id="testimonial-dots-icon" transform="translate(338.672 5764.524)">
      <circle id="Ellipse_10" data-name="Ellipse 10" cx="12" cy="12" r="12" transform="translate(22.328 1.476)" fill="#1d53d4" opacity="0.2"/>
      <circle id="Ellipse_7" data-name="Ellipse 7" cx="3" cy="3" r="3" transform="translate(1.328 10.476)" fill="#1d53d4"/>
      <circle id="Ellipse_8" data-name="Ellipse 8" cx="3" cy="3" r="3" transform="translate(31.328 10.476)" fill="#1d53d4"/>
      <circle id="Ellipse_9" data-name="Ellipse 9" cx="3" cy="3" r="3" transform="translate(61.328 10.476)" fill="#1d53d4"/>
    </g>
  </g>
</svg>
