<svg xmlns="http://www.w3.org/2000/svg" width="42.18" height="42.26" viewBox="0 0 42.18 42.26">
  <path id="navbar-call-icon" d="M27.585,46.782a3.393,3.393,0,0,0-2.461-1.129,3.509,3.509,0,0,0-2.49,1.121l-2.3,2.294c-.189-.1-.379-.2-.561-.291-.262-.131-.51-.255-.721-.386a25.008,25.008,0,0,1-5.993-5.461,14.754,14.754,0,0,1-1.966-3.1c.6-.546,1.15-1.114,1.689-1.66.2-.2.408-.415.612-.619a3.341,3.341,0,0,0,0-5.039l-1.988-1.988c-.226-.226-.459-.459-.677-.692-.437-.451-.9-.917-1.369-1.354a3.447,3.447,0,0,0-2.439-1.07,3.567,3.567,0,0,0-2.476,1.07l-.015.015-2.476,2.5a5.327,5.327,0,0,0-1.58,3.386,12.765,12.765,0,0,0,.932,5.4,31.352,31.352,0,0,0,5.57,9.291A34.266,34.266,0,0,0,18.287,58,17.777,17.777,0,0,0,24.695,59.9c.153.007.313.015.459.015a5.487,5.487,0,0,0,4.2-1.806c.007-.015.022-.022.029-.036a16.555,16.555,0,0,1,1.274-1.318c.313-.3.633-.612.947-.939a3.632,3.632,0,0,0,1.1-2.519,3.5,3.5,0,0,0-1.121-2.5Zm2.607,7.667c-.007,0-.007.007,0,0-.284.306-.575.583-.888.888A19.146,19.146,0,0,0,27.9,56.794a3.51,3.51,0,0,1-2.738,1.158c-.109,0-.226,0-.335-.007a15.793,15.793,0,0,1-5.68-1.7A32.345,32.345,0,0,1,8.4,47.823a29.561,29.561,0,0,1-5.243-8.73,10.4,10.4,0,0,1-.816-4.558,3.343,3.343,0,0,1,1-2.163l2.483-2.483a1.655,1.655,0,0,1,1.107-.517A1.558,1.558,0,0,1,8,29.882l.022.022c.444.415.866.845,1.311,1.3.226.233.459.466.692.706L12.01,33.9a1.39,1.39,0,0,1,0,2.257c-.211.211-.415.422-.626.626-.612.626-1.194,1.209-1.828,1.777-.015.015-.029.022-.036.036a1.485,1.485,0,0,0-.379,1.653l.022.066a15.959,15.959,0,0,0,2.352,3.837l.007.007a26.725,26.725,0,0,0,6.466,5.883,9.94,9.94,0,0,0,.9.488c.262.131.51.255.721.386.029.015.058.036.087.051a1.578,1.578,0,0,0,.721.182,1.557,1.557,0,0,0,1.107-.5l2.49-2.49a1.647,1.647,0,0,1,1.1-.546,1.483,1.483,0,0,1,1.049.532l.015.015,4.012,4.012A1.44,1.44,0,0,1,30.192,54.449Z" transform="translate(22.124 -25.539) rotate(22)" fill="#fff" opacity="0.8"/>
</svg>
