<svg xmlns="http://www.w3.org/2000/svg" width="75.422" height="53.76" viewBox="0 0 75.422 53.76">
  <path id="NTW-icon" d="M190.045,286.855l-1.112,4.151-9.112,34.04-1.113,4.151h26.009l1.38,6.391,1.086,5.028,3.416-3.844,6.733-7.574h25.54l1.1-4.151,9.049-34.039,1.1-4.152Zm23.637,36.873-3.317,3.773-.978-4.934,1.031-3.852,0-.108,5.461-3.086Zm2.788-11.235-5.569,3.146,1.391-5.193,5.569-3.148Zm20.141,8.713h-4.6v-15.05l-4.058,15.05h-4.66V299.62H219.8l-1.152,4.247-5.631,3.144,2-7.391h-5.828l-5.855,21.586h-4.392l-1.754-14.23-3.821,14.23h-4.726l7.007-26.152h4.685l1.756,14.351,3.834-14.351h21.931v12.669l3.425-12.669h4.255v12.688l3.353-12.688h4.726Z" transform="translate(-178.708 -286.855)" fill="#5f6265"/>
</svg>
