<svg xmlns="http://www.w3.org/2000/svg" width="80" height="80" viewBox="0 0 80 80">
  <g id="services-monthly-maintainence-icon03" transform="translate(-15 -15)">
    <rect id="Rectangle_34" data-name="Rectangle 34" width="80" height="80" transform="translate(15 15)" fill="#1d53d4"/>
    <g id="tools_2_" data-name="tools (2)" transform="translate(32.748 33.248)">
      <path id="Path_496" data-name="Path 496" d="M338.19,155.148a.85.85,0,1,0,.85.849A.849.849,0,0,0,338.19,155.148Zm0,0" transform="translate(-308.219 -141.966)" fill="#fff" stroke="#1d53d4" stroke-width="0.25"/>
      <path id="Path_497" data-name="Path 497" d="M156.495,336.84a.85.85,0,1,0,.85.85A.849.849,0,0,0,156.495,336.84Zm0,0" transform="translate(-141.962 -308.219)" fill="#fff" stroke="#1d53d4" stroke-width="0.25"/>
      <path id="Path_498" data-name="Path 498" d="M42.948,5.227a.849.849,0,0,0-.8.229L38.63,9.006H36.941L35.082,7.08V5.368l3.472-3.524a.85.85,0,0,0-.334-1.4A8.5,8.5,0,0,0,27.3,10.7l-6.259,6.259L10.611,6.505V4.454a.85.85,0,0,0-.413-.729L4.19.12A.849.849,0,0,0,3.153.248l-2.4,2.4A.85.85,0,0,0,.622,3.689L4.226,9.7a.85.85,0,0,0,.728.413H7.005L17.434,20.562,11.2,26.8A8.5,8.5,0,0,0,.943,37.72a.85.85,0,0,0,1.408.327L5.874,34.5h1.7l1.935,1.935v1.7l-3.55,3.522a.85.85,0,0,0,.327,1.408,8.5,8.5,0,0,0,9.61-3.1,8.4,8.4,0,0,0,1.313-7.16L22.214,27.8l1.147,1.246-.526.526a.85.85,0,0,0,1.2,1.2l.477-.477L35.276,41.985l.025.025A5.1,5.1,0,0,0,42.511,34.8l-.027-.025L30.775,24.032l.471-.471a.85.85,0,0,0-1.2-1.2l-.523.523-1.248-1.146L33.305,16.7A8.5,8.5,0,0,0,43.56,5.783a.849.849,0,0,0-.613-.556ZM7.959,8.661a.841.841,0,0,0-.6-.241H5.436L2.42,3.384,3.885,1.919,8.912,4.935V6.857a.849.849,0,0,0,.248.6l10.677,10.7-1.2,1.2ZM29.573,25.235,41.321,36.014a3.4,3.4,0,0,1-4.808,4.807l-10.8-11.729Zm-1.253-1.15L24.564,27.84l-1.147-1.246,3.654-3.655Zm7.188-8.792a6.791,6.791,0,0,1-2.172-.354.851.851,0,0,0-.872.2L15.645,31.963a.849.849,0,0,0-.2.872A6.8,6.8,0,0,1,9,41.8a6.96,6.96,0,0,1-.741-.04l2.7-2.678a.849.849,0,0,0,.251-.6v-2.4a.85.85,0,0,0-.249-.6L8.524,33.046a.85.85,0,0,0-.6-.249H5.52a.851.851,0,0,0-.6.251l-2.678,2.7a6.874,6.874,0,0,1-.04-.741,6.8,6.8,0,0,1,8.969-6.444.849.849,0,0,0,.872-.2L28.859,11.54a.85.85,0,0,0,.2-.872A6.8,6.8,0,0,1,35.507,1.7a6.944,6.944,0,0,1,.763.042L33.627,4.423a.849.849,0,0,0-.244.6v2.4a.849.849,0,0,0,.238.59l2.348,2.433a.849.849,0,0,0,.611.26h2.4a.849.849,0,0,0,.6-.251l2.678-2.7a6.875,6.875,0,0,1,.04.741,6.805,6.805,0,0,1-6.8,6.8Zm0,0" transform="translate(0 0)" fill="#fff" stroke="#1d53d4" stroke-width="0.25"/>
      <path id="Path_499" data-name="Path 499" d="M194.806,183.674l-10.633,10.633a.85.85,0,0,0,1.2,1.2l10.633-10.633a.85.85,0,0,0-1.2-1.2Zm0,0" transform="translate(-167.839 -167.84)" fill="#fff" stroke="#1d53d4" stroke-width="0.25"/>
      <path id="Path_500" data-name="Path 500" d="M353.188,354.158a.85.85,0,0,0,1.2-1.2l-7.659-7.634a.85.85,0,0,0-1.2,1.2Zm0,0" transform="translate(-315.483 -315.751)" fill="#fff" stroke="#1d53d4" stroke-width="0.25"/>
    </g>
  </g>
</svg>
