<svg xmlns="http://www.w3.org/2000/svg" width="80" height="80" viewBox="0 0 80 80">
  <g id="services-drainage-cleaning-icon02" transform="translate(-15 -15)">
    <rect id="Rectangle_34" data-name="Rectangle 34" width="80" height="80" transform="translate(15 15)" fill="#1d53d4"/>
    <g id="pipeline" transform="translate(28.068 32.351)">
      <path id="Path_493" data-name="Path 493" d="M48.528,3.539H44.1a.885.885,0,0,0-.885.885v.442H40.565a.884.884,0,0,0-.773.455A15.058,15.058,0,0,0,25.348,20.348v.885h-.442a.885.885,0,0,0-.885.885v3.539a.885.885,0,0,0,.885.885h.442v3.273a3.1,3.1,0,1,1-6.193,0V26.541H19.6a.885.885,0,0,0,.885-.885V22.118a.885.885,0,0,0-.885-.885h-.442V9.612a.884.884,0,0,0,.442-.765V6.193h.442a.885.885,0,0,0,.885-.885V.885A.885.885,0,0,0,20.04,0H5.885A.885.885,0,0,0,5,.885V5.308a.885.885,0,0,0,.885.885h.442V8.847a.884.884,0,0,0,.442.765V21.233H6.327a.885.885,0,0,0-.885.885v3.539a.885.885,0,0,0,.885.885h.442v3.273a15.4,15.4,0,0,0,2.644,8.656,15.539,15.539,0,0,0,6.811,5.61A15.393,15.393,0,0,0,22.251,45.3v0h0a15.419,15.419,0,0,0,6.4-1.383,15.495,15.495,0,0,0,5.1-3.74.885.885,0,0,0-1.315-1.185,13.713,13.713,0,0,1-23.9-9.175V26.541h8.847v3.273a4.866,4.866,0,1,0,9.732,0V26.541h8.847v3.273a13.855,13.855,0,0,1-.239,2.562.887.887,0,0,0,.871,1.049.885.885,0,0,0,.868-.721,15.618,15.618,0,0,0,.27-2.89V26.541h.442a.885.885,0,0,0,.885-.885V22.118a.885.885,0,0,0-.885-.885h-.442v-.708a2.836,2.836,0,0,1,2.125-2.742.882.882,0,0,0,.706.353h2.654v.442a.885.885,0,0,0,.885.885h4.424a.885.885,0,0,0,.885-.885V4.424a.885.885,0,0,0-.885-.885ZM18.713,24.772H7.212V23h11.5ZM17.386,9.732v11.5H8.539V9.732ZM11.635,7.962V6.193h2.654V7.962Zm4.424,0V6.193h1.769V7.962Zm-6.193,0H8.1V6.193H9.866Zm-3.1-3.539V1.769H19.155V4.424ZM37.292,24.772h-11.5V23h11.5Zm2.389-8.762a4.608,4.608,0,0,0-3.716,4.515v.708H27.118v-.885A13.288,13.288,0,0,1,39.681,7.1Zm3.539.357H41.45V14.6h1.769Zm0-3.539H41.45V10.174h1.769Zm0-4.424H41.45V6.635h1.769Zm4.424,9.289H44.989V5.308h2.654Z" fill="#fff" stroke="#1d53d4" stroke-width="0.25"/>
      <path id="Path_494" data-name="Path 494" d="M88.792,397.719a.885.885,0,0,0-1.466.991,11.865,11.865,0,0,0,6.734,4.817.885.885,0,1,0,.461-1.708A10.09,10.09,0,0,1,88.792,397.719Z" transform="translate(-74.904 -362.178)" fill="#fff" stroke="#1d53d4" stroke-width="0.25"/>
      <path id="Path_495" data-name="Path 495" d="M291.6,117.489a.885.885,0,1,0,1.542.868c.09-.16.186-.319.285-.474a9.875,9.875,0,0,1,3.721-3.417.885.885,0,0,0-.822-1.567,11.648,11.648,0,0,0-4.389,4.03C291.824,117.112,291.711,117.3,291.6,117.489Z" transform="translate(-261.144 -102.819)" fill="#fff" stroke="#1d53d4" stroke-width="0.25"/>
      <circle id="Ellipse_18" data-name="Ellipse 18" cx="0.885" cy="0.885" r="0.885" transform="translate(34.447 35.418)" fill="#fff" stroke="#1d53d4" stroke-width="0.25"/>
    </g>
  </g>
</svg>
