<svg xmlns="http://www.w3.org/2000/svg" xmlns:xlink="http://www.w3.org/1999/xlink" width="102" height="17" viewBox="0 0 102 17">
  <defs>
    <clipPath id="clip-path">
      <rect width="102" height="17" fill="none"/>
    </clipPath>
    <clipPath id="clip-path-2">
      <rect width="92" height="17" fill="none"/>
    </clipPath>
  </defs>
  <g id="testimonial-star-icon" transform="translate(-290 -5734)">
    <g id="Repeat_Grid_11" data-name="Repeat Grid 11" transform="translate(290 5734)" clip-path="url(#clip-path)">
      <g transform="translate(-308 -4276)">
        <path id="Polygon_2" data-name="Polygon 2" d="M8.1,1.911a1,1,0,0,1,1.808,0l1.561,3.3a1,1,0,0,0,.78.565l3.631.453a1,1,0,0,1,.558,1.724l-2.66,2.477a1,1,0,0,0-.3.921l.687,3.564A1,1,0,0,1,12.7,15.981L9.48,14.221a1,1,0,0,0-.959,0L5.3,15.981A1,1,0,0,1,3.84,14.914l.687-3.564a1,1,0,0,0-.3-.921L1.566,7.952a1,1,0,0,1,.558-1.724l3.631-.453a1,1,0,0,0,.78-.565Z" transform="translate(307 4276)" fill="#d4d4d4"/>
      </g>
      <g transform="translate(-287 -4276)">
        <path id="Polygon_2-2" data-name="Polygon 2" d="M8.1,1.911a1,1,0,0,1,1.808,0l1.561,3.3a1,1,0,0,0,.78.565l3.631.453a1,1,0,0,1,.558,1.724l-2.66,2.477a1,1,0,0,0-.3.921l.687,3.564A1,1,0,0,1,12.7,15.981L9.48,14.221a1,1,0,0,0-.959,0L5.3,15.981A1,1,0,0,1,3.84,14.914l.687-3.564a1,1,0,0,0-.3-.921L1.566,7.952a1,1,0,0,1,.558-1.724l3.631-.453a1,1,0,0,0,.78-.565Z" transform="translate(307 4276)" fill="#d4d4d4"/>
      </g>
      <g transform="translate(-266 -4276)">
        <path id="Polygon_2-3" data-name="Polygon 2" d="M8.1,1.911a1,1,0,0,1,1.808,0l1.561,3.3a1,1,0,0,0,.78.565l3.631.453a1,1,0,0,1,.558,1.724l-2.66,2.477a1,1,0,0,0-.3.921l.687,3.564A1,1,0,0,1,12.7,15.981L9.48,14.221a1,1,0,0,0-.959,0L5.3,15.981A1,1,0,0,1,3.84,14.914l.687-3.564a1,1,0,0,0-.3-.921L1.566,7.952a1,1,0,0,1,.558-1.724l3.631-.453a1,1,0,0,0,.78-.565Z" transform="translate(307 4276)" fill="#d4d4d4"/>
      </g>
      <g transform="translate(-245 -4276)">
        <path id="Polygon_2-4" data-name="Polygon 2" d="M8.1,1.911a1,1,0,0,1,1.808,0l1.561,3.3a1,1,0,0,0,.78.565l3.631.453a1,1,0,0,1,.558,1.724l-2.66,2.477a1,1,0,0,0-.3.921l.687,3.564A1,1,0,0,1,12.7,15.981L9.48,14.221a1,1,0,0,0-.959,0L5.3,15.981A1,1,0,0,1,3.84,14.914l.687-3.564a1,1,0,0,0-.3-.921L1.566,7.952a1,1,0,0,1,.558-1.724l3.631-.453a1,1,0,0,0,.78-.565Z" transform="translate(307 4276)" fill="#d4d4d4"/>
      </g>
      <g transform="translate(-224 -4276)">
        <path id="Polygon_2-5" data-name="Polygon 2" d="M8.1,1.911a1,1,0,0,1,1.808,0l1.561,3.3a1,1,0,0,0,.78.565l3.631.453a1,1,0,0,1,.558,1.724l-2.66,2.477a1,1,0,0,0-.3.921l.687,3.564A1,1,0,0,1,12.7,15.981L9.48,14.221a1,1,0,0,0-.959,0L5.3,15.981A1,1,0,0,1,3.84,14.914l.687-3.564a1,1,0,0,0-.3-.921L1.566,7.952a1,1,0,0,1,.558-1.724l3.631-.453a1,1,0,0,0,.78-.565Z" transform="translate(307 4276)" fill="#d4d4d4"/>
      </g>
    </g>
    <g id="Repeat_Grid_12" data-name="Repeat Grid 12" transform="translate(290 5734)" clip-path="url(#clip-path-2)">
      <g transform="translate(-308 -4276)">
        <path id="Polygon_2-6" data-name="Polygon 2" d="M8.1,1.911a1,1,0,0,1,1.808,0l1.561,3.3a1,1,0,0,0,.78.565l3.631.453a1,1,0,0,1,.558,1.724l-2.66,2.477a1,1,0,0,0-.3.921l.687,3.564A1,1,0,0,1,12.7,15.981L9.48,14.221a1,1,0,0,0-.959,0L5.3,15.981A1,1,0,0,1,3.84,14.914l.687-3.564a1,1,0,0,0-.3-.921L1.566,7.952a1,1,0,0,1,.558-1.724l3.631-.453a1,1,0,0,0,.78-.565Z" transform="translate(307 4276)" fill="#f1a635"/>
      </g>
      <g transform="translate(-287 -4276)">
        <path id="Polygon_2-7" data-name="Polygon 2" d="M8.1,1.911a1,1,0,0,1,1.808,0l1.561,3.3a1,1,0,0,0,.78.565l3.631.453a1,1,0,0,1,.558,1.724l-2.66,2.477a1,1,0,0,0-.3.921l.687,3.564A1,1,0,0,1,12.7,15.981L9.48,14.221a1,1,0,0,0-.959,0L5.3,15.981A1,1,0,0,1,3.84,14.914l.687-3.564a1,1,0,0,0-.3-.921L1.566,7.952a1,1,0,0,1,.558-1.724l3.631-.453a1,1,0,0,0,.78-.565Z" transform="translate(307 4276)" fill="#f1a635"/>
      </g>
      <g transform="translate(-266 -4276)">
        <path id="Polygon_2-8" data-name="Polygon 2" d="M8.1,1.911a1,1,0,0,1,1.808,0l1.561,3.3a1,1,0,0,0,.78.565l3.631.453a1,1,0,0,1,.558,1.724l-2.66,2.477a1,1,0,0,0-.3.921l.687,3.564A1,1,0,0,1,12.7,15.981L9.48,14.221a1,1,0,0,0-.959,0L5.3,15.981A1,1,0,0,1,3.84,14.914l.687-3.564a1,1,0,0,0-.3-.921L1.566,7.952a1,1,0,0,1,.558-1.724l3.631-.453a1,1,0,0,0,.78-.565Z" transform="translate(307 4276)" fill="#f1a635"/>
      </g>
      <g transform="translate(-245 -4276)">
        <path id="Polygon_2-9" data-name="Polygon 2" d="M8.1,1.911a1,1,0,0,1,1.808,0l1.561,3.3a1,1,0,0,0,.78.565l3.631.453a1,1,0,0,1,.558,1.724l-2.66,2.477a1,1,0,0,0-.3.921l.687,3.564A1,1,0,0,1,12.7,15.981L9.48,14.221a1,1,0,0,0-.959,0L5.3,15.981A1,1,0,0,1,3.84,14.914l.687-3.564a1,1,0,0,0-.3-.921L1.566,7.952a1,1,0,0,1,.558-1.724l3.631-.453a1,1,0,0,0,.78-.565Z" transform="translate(307 4276)" fill="#f1a635"/>
      </g>
      <g transform="translate(-224 -4276)">
        <path id="Polygon_2-10" data-name="Polygon 2" d="M8.1,1.911a1,1,0,0,1,1.808,0l1.561,3.3a1,1,0,0,0,.78.565l3.631.453a1,1,0,0,1,.558,1.724l-2.66,2.477a1,1,0,0,0-.3.921l.687,3.564A1,1,0,0,1,12.7,15.981L9.48,14.221a1,1,0,0,0-.959,0L5.3,15.981A1,1,0,0,1,3.84,14.914l.687-3.564a1,1,0,0,0-.3-.921L1.566,7.952a1,1,0,0,1,.558-1.724l3.631-.453a1,1,0,0,0,.78-.565Z" transform="translate(307 4276)" fill="#f1a635"/>
      </g>
    </g>
  </g>
</svg>
