<svg xmlns="http://www.w3.org/2000/svg" width="61.825" height="58.955" viewBox="0 0 61.825 58.955">
  <path id="testimonial-quote-icon" d="M14.347,31.632v4.977H26.78v26.78H0V36.609H0V31.632c0-10.106,2.908-17.61,8.642-22.3C12.61,6.08,17.632,4.433,23.569,4.433V18.779C20.346,18.779,14.347,18.779,14.347,31.632ZM58.613,18.779V4.433c-5.937,0-10.958,1.647-14.925,4.894-5.735,4.7-8.643,12.2-8.643,22.3v4.977h0v26.78H61.825V36.609H49.391V31.632C49.392,18.779,55.391,18.779,58.613,18.779Z" transform="translate(0 -4.433)" fill="#1d53d4"/>
</svg>
