<svg xmlns="http://www.w3.org/2000/svg" width="80" height="80" viewBox="0 0 80 80">
  <g id="value-stack-icon01" transform="translate(-15 -15)">
    <rect id="Rectangle_34" data-name="Rectangle 34" width="80" height="80" transform="translate(15 15)" fill="#1d53d4"/>
    <g id="medal_7_" data-name="medal (7)" transform="translate(31.647 28.485)">
      <g id="Group_12" data-name="Group 12" transform="translate(15.079 10.64)">
        <g id="Group_11" data-name="Group 11">
          <path id="Path_25" data-name="Path 25" d="M192.133,108.746a1.036,1.036,0,0,0-.836-.7l-4.506-.654-2.016-4.082a1.036,1.036,0,0,0-.929-.577h0a1.036,1.036,0,0,0-.929.578l-2.014,4.083-4.505.656a1.036,1.036,0,0,0-.573,1.767l3.261,3.177-.768,4.487a1.036,1.036,0,0,0,1.5,1.091l4.029-2.12,4.03,2.118a1.036,1.036,0,0,0,1.5-1.092l-.771-4.487,3.259-3.179A1.036,1.036,0,0,0,192.133,108.746Zm-5.357,3.138a1.036,1.036,0,0,0-.3.917l.508,2.955-2.655-1.395a1.036,1.036,0,0,0-.964,0l-2.654,1.4.506-2.956a1.036,1.036,0,0,0-.3-.917l-2.148-2.093,2.967-.432a1.036,1.036,0,0,0,.78-.567l1.326-2.689,1.328,2.689a1.036,1.036,0,0,0,.78.566l2.968.43Z" transform="translate(-175.512 -102.728)" fill="#fff" stroke="#1d53d4" stroke-width="0.5"/>
        </g>
      </g>
      <g id="Group_14" data-name="Group 14" transform="translate(0 0)">
        <g id="Group_13" data-name="Group 13" transform="translate(0 0)">
          <path id="Path_26" data-name="Path 26" d="M76.619,45.506,68.058,30.616a18.85,18.85,0,1,0-29.432,0L30.065,45.506A1.036,1.036,0,0,0,31.1,47.049l6.682-.9,2.564,6.235a1.036,1.036,0,0,0,.889.639l.069,0a1.036,1.036,0,0,0,.9-.518l8.642-14.969,0-.007a18.9,18.9,0,0,0,4.99,0l0,.007,8.642,14.969a1.036,1.036,0,0,0,.9.518l.069,0a1.036,1.036,0,0,0,.889-.639L68.9,46.152l6.682.9a1.035,1.035,0,0,0,1.035-1.543ZM41.461,49.651l-1.866-4.539,1.675-2.733A1.036,1.036,0,1,0,39.5,41.3l-1.692,2.762-4.9.658,7.175-12.48A18.849,18.849,0,0,0,48.7,37.12ZM53.342,35.629A16.779,16.779,0,1,1,70.121,18.85,16.8,16.8,0,0,1,53.342,35.629Zm15.531,8.429L67.181,41.3a1.036,1.036,0,1,0-1.766,1.082l1.675,2.733-1.866,4.539L57.989,37.12A18.849,18.849,0,0,0,66.6,32.236l7.175,12.48Z" transform="translate(-29.928 0)" fill="#fff" stroke="#1d53d4" stroke-width="0.5"/>
        </g>
      </g>
      <g id="Group_16" data-name="Group 16" transform="translate(16.292 5.386)">
        <g id="Group_15" data-name="Group 15">
          <path id="Path_27" data-name="Path 27" d="M194.35,52a13.471,13.471,0,0,0-6.595,1.723,1.036,1.036,0,1,0,1.016,1.805,11.4,11.4,0,0,1,15.866,14.838,1.036,1.036,0,1,0,1.869.892,13.345,13.345,0,0,0,1.307-5.795A13.48,13.48,0,0,0,194.35,52Z" transform="translate(-187.227 -52)" fill="#fff" stroke="#1d53d4" stroke-width="0.5"/>
        </g>
      </g>
      <g id="Group_18" data-name="Group 18" transform="translate(31.27 26.473)">
        <g id="Group_17" data-name="Group 17">
          <path id="Path_28" data-name="Path 28" d="M333.625,255.891a1.036,1.036,0,0,0-1.465.022l-.023.024a1.036,1.036,0,1,0,1.482,1.447l.027-.028A1.036,1.036,0,0,0,333.625,255.891Z" transform="translate(-331.843 -255.599)" fill="#fff" stroke="#1d53d4" stroke-width="0.5"/>
        </g>
      </g>
      <g id="Group_20" data-name="Group 20" transform="translate(9.95 12.668)">
        <g id="Group_19" data-name="Group 19" transform="translate(0)">
          <path id="Path_29" data-name="Path 29" d="M146.357,138.882a1.036,1.036,0,0,0-1.407-.407,11.4,11.4,0,0,1-15.864-14.7,1.036,1.036,0,1,0-1.885-.859,13.469,13.469,0,0,0,18.749,17.376A1.036,1.036,0,0,0,146.357,138.882Z" transform="translate(-125.996 -122.306)" fill="#fff" stroke="#1d53d4" stroke-width="0.5"/>
        </g>
      </g>
      <g id="Group_22" data-name="Group 22" transform="translate(13.263 9.344)">
        <g id="Group_21" data-name="Group 21" transform="translate(0)">
          <path id="Path_30" data-name="Path 30" d="M159.747,90.494a1.036,1.036,0,0,0-1.464.052l-.023.025a1.036,1.036,0,1,0,1.52,1.407l.018-.02A1.036,1.036,0,0,0,159.747,90.494Z" transform="translate(-157.984 -90.216)" fill="#fff" stroke="#1d53d4" stroke-width="0.5"/>
        </g>
      </g>
    </g>
  </g>
</svg>
