<svg xmlns="http://www.w3.org/2000/svg" width="80" height="80" viewBox="0 0 80 80">
  <g id="value-stack-icon03" transform="translate(-15 -15)">
    <rect id="Rectangle_34" data-name="Rectangle 34" width="80" height="80" transform="translate(15 15)" fill="#1d53d4"/>
    <g id="trophy" transform="translate(11.752 30.286)">
      <path id="Path_529" data-name="Path 529" d="M283.989,88.867a.966.966,0,0,0-1.186.678c-.144.529-.287,1.088-.437,1.68-.968,3.8-2.173,8.522-5.019,10.3a.966.966,0,1,0,1.025,1.638c3.5-2.192,4.812-7.333,5.866-11.464.149-.584.29-1.136.43-1.65A.966.966,0,0,0,283.989,88.867Z" transform="translate(-231.627 -80.252)" fill="#fff" stroke="#1d53d4" stroke-width="0.5"/>
      <path id="Path_530" data-name="Path 530" d="M65.03,4.526H60.367A3.226,3.226,0,0,0,57.411,0H47.579a.966.966,0,0,0,0,1.932h9.833a1.3,1.3,0,1,1,0,2.594H29.082a1.3,1.3,0,0,1,0-2.594h9.824a.966.966,0,1,0,0-1.932H29.082a3.227,3.227,0,0,0-2.953,4.526H21.466a.966.966,0,0,0-.966.966c0,6.622,1.645,11.521,4.89,14.561,2.3,2.153,5.353,3.375,9.328,3.732A11.331,11.331,0,0,0,39.478,27.3v3.661a2.941,2.941,0,0,0-1.758,3.777,2.943,2.943,0,0,0-2.834,2.937v1.008h-4.7a1.808,1.808,0,0,0-1.806,1.807V47.65a1.808,1.808,0,0,0,1.806,1.806H56.311a1.808,1.808,0,0,0,1.806-1.806V40.492a1.808,1.808,0,0,0-1.806-1.807h-4.7V37.678a2.943,2.943,0,0,0-2.837-2.937,2.942,2.942,0,0,0-1.755-3.777V27.3a11.326,11.326,0,0,0,4.759-3.517c3.975-.357,7.029-1.579,9.328-3.732C64.35,17.013,66,12.114,66,5.492a.966.966,0,0,0-.966-.966Zm-5.6,6.064c-.716,3.415-1.879,5.218-4.1,6.205q.146-.475.281-.968l1.423-5.237h2.4Zm-29.959,0,1.423,5.237q.134.494.281.968c-2.223-.987-3.387-2.79-4.1-6.205h2.4Zm-2.755,8.054c-2.687-2.517-4.12-6.613-4.267-12.185h5.9l.6,2.2H25.9a.966.966,0,0,0-.953,1.125,14.206,14.206,0,0,0,2.207,6.2A8.362,8.362,0,0,0,32,19.126a20.871,20.871,0,0,0,1.239,2.522,12.263,12.263,0,0,1-6.533-3.005ZM56.185,40.618v6.907H30.311V40.618H56.185ZM48.671,36.67a1.009,1.009,0,0,1,1.007,1.008v1.008H36.818V37.678a1.009,1.009,0,0,1,1.007-1.008H48.671Zm-1.65-2.943a1.01,1.01,0,0,1-1.007,1.011H40.483a1.01,1.01,0,1,1,0-2.019h5.531A1.009,1.009,0,0,1,47.02,33.727Zm-5.61-2.94V27.821a11.349,11.349,0,0,0,3.675,0v2.966H41.41ZM52.845,18.047a17.443,17.443,0,0,1-2.21,4.092.971.971,0,0,0-.211.273,9.25,9.25,0,0,1-4.581,3.255.949.949,0,0,0-.127.038,9.316,9.316,0,0,1-4.932,0,.952.952,0,0,0-.142-.042,9.254,9.254,0,0,1-4.571-3.251.967.967,0,0,0-.213-.276,17.48,17.48,0,0,1-2.217-4.109.968.968,0,0,0-.055-.141,26.944,26.944,0,0,1-.833-2.568l-1.6-5.888a.962.962,0,0,0-.031-.113l-.777-2.861h25.8L53.74,15.32c-.227.837-.5,1.7-.829,2.558a.959.959,0,0,0-.066.169Zm6.938.6a12.267,12.267,0,0,1-6.533,3.005,20.838,20.838,0,0,0,1.239-2.522,8.359,8.359,0,0,0,4.845-3.146,14.213,14.213,0,0,0,2.206-6.2.966.966,0,0,0-.953-1.125H57.552l.6-2.2h5.9C63.9,12.03,62.471,16.126,59.784,18.643Z" fill="#fff" stroke="#1d53d4" stroke-width="0.5"/>
      <path id="Path_531" data-name="Path 531" d="M228.339,448.182h8.281a.966.966,0,1,0,0-1.932h-8.281a.966.966,0,1,0,0,1.932Z" transform="translate(-186.89 -403.145)" fill="#fff" stroke="#1d53d4" stroke-width="0.5"/>
      <path id="Path_532" data-name="Path 532" d="M179.836,448.182h.006a.969.969,0,1,0-.006,0Z" transform="translate(-143.072 -403.145)" fill="#fff" stroke="#1d53d4" stroke-width="0.5"/>
      <path id="Path_533" data-name="Path 533" d="M246.924,1.932h0a.966.966,0,1,0-.969-.966A.965.965,0,0,0,246.927,1.932Z" transform="translate(-203.68)" fill="#fff" stroke="#1d53d4" stroke-width="0.5"/>
    </g>
  </g>
</svg>
