<svg xmlns="http://www.w3.org/2000/svg" width="80" height="80" viewBox="0 0 80 80">
  <g id="value-stack-icon02" transform="translate(-15 -15)">
    <rect id="Rectangle_34" data-name="Rectangle 34" width="80" height="80" transform="translate(15 15)" fill="#1d53d4"/>
    <g id="community" transform="translate(27.891 -6.168)">
      <g id="Group_782" data-name="Group 782" transform="translate(0 35.965)">
        <path id="Path_538" data-name="Path 538" d="M52.688,166.926a3.049,3.049,0,0,0-4.067,1.442l-.009.016L44.5,175.536a2.847,2.847,0,0,0-3.54.784c-.295.378-1.268,1.674-2.3,3.045-.565.752-1.129,1.5-1.565,2.081a1.059,1.059,0,0,0,1.691,1.275c.437-.579,1-1.332,1.568-2.085.979-1.3,1.992-2.652,2.275-3.015a.732.732,0,0,1,1.013-.131c.228.178.216.612-.036,1.293a44.765,44.765,0,0,1-3.064,6.636,1.059,1.059,0,0,0,1.829,1.067,46.994,46.994,0,0,0,3.22-6.966,4.156,4.156,0,0,0,.29-2.14l4.563-7.932c.369-.612.856-.857,1.273-.642a.8.8,0,0,1,.272,1.114c-.309.682-.974,2.372-1.815,4.508-1.114,2.828-2.5,6.348-3.67,9.087a15.588,15.588,0,0,1-4.523,6.633l-4.059,3.97a1.059,1.059,0,0,0-.288,1.01l1.414,5.74.005.021a.185.185,0,0,1-.052.18H30.724c-.786,0-.955-.224-1.131-.7-2.077-5.625.065-8.854,2.164-11.038a1.059,1.059,0,1,0-1.527-1.467,12.7,12.7,0,0,0-3.119,5.012,11.041,11.041,0,0,0-.913-2.1,21.646,21.646,0,0,0-5.658-5.948,17.911,17.911,0,0,1-2.707-2.452c-.283-.363-1.295-1.71-2.273-3.013-1.03-1.372-2-2.667-2.3-3.045a2.847,2.847,0,0,0-3.54-.784l-4.115-7.152-.009-.016a3.049,3.049,0,0,0-4.067-1.442A2.891,2.891,0,0,0,.3,170.78l0,.01c.2.45.614,1.476.949,2.319a1.059,1.059,0,0,0,1.968-.781c-.514-1.3-.81-2.017-.986-2.407a.8.8,0,0,1,.272-1.114c.417-.216.9.03,1.273.642l4.563,7.931a4.155,4.155,0,0,0,.29,2.14,46.974,46.974,0,0,0,3.22,6.966,1.059,1.059,0,1,0,1.829-1.067,44.784,44.784,0,0,1-3.064-6.636c-.253-.68-.265-1.115-.036-1.293a.733.733,0,0,1,1.013.131c.283.363,1.3,1.712,2.275,3.016,1.029,1.37,2,2.665,2.3,3.043a19.109,19.109,0,0,0,3.052,2.8c3.811,3.058,8.13,6.524,5.411,13.888-.176.476-.345.7-1.131.7H15.219a.185.185,0,0,1-.052-.18l.005-.021,1.414-5.74a1.059,1.059,0,0,0-.288-1.01l-4.059-3.97a15.589,15.589,0,0,1-4.523-6.634c-.293-.685-.623-1.474-.979-2.344a1.059,1.059,0,0,0-1.959.8c.366.892.69,1.669.992,2.373a17.552,17.552,0,0,0,4.989,7.315l3.626,3.547-1.267,5.144a2.316,2.316,0,0,0,.4,1.984,2.118,2.118,0,0,0,1.685.849h8.29a3,3,0,0,0,3.117-2.084q.294-.8.5-1.563.2.771.5,1.563a3,3,0,0,0,3.117,2.084h8.29a2.118,2.118,0,0,0,1.685-.849,2.316,2.316,0,0,0,.4-1.984l-1.267-5.145,3.626-3.547a17.554,17.554,0,0,0,4.989-7.315c1.183-2.767,2.575-6.3,3.694-9.144.8-2.031,1.49-3.785,1.776-4.415l0-.01a2.89,2.89,0,0,0-1.234-3.853Z" transform="translate(0 -152.783)" fill="#fff" stroke="#1d53d4" stroke-width="0.5"/>
        <path id="Path_539" data-name="Path 539" d="M29.729,257.186a1.059,1.059,0,0,0-1.059-1.059h0a1.059,1.059,0,1,0,1.059,1.059Z" transform="translate(-24.688 -232.817)" fill="#fff" stroke="#1d53d4" stroke-width="0.5"/>
        <path id="Path_540" data-name="Path 540" d="M317.682,334.644a1.059,1.059,0,1,0,1.06,1.059,1.058,1.058,0,0,0-1.06-1.059Z" transform="translate(-283.101 -303.021)" fill="#fff" stroke="#1d53d4" stroke-width="0.5"/>
        <path id="Path_541" data-name="Path 541" d="M206.758,21.379a5.379,5.379,0,1,0-5.379,5.379A5.385,5.385,0,0,0,206.758,21.379Zm-5.379,3.586a3.586,3.586,0,1,1,3.586-3.586A3.59,3.59,0,0,1,201.379,24.965Z" transform="translate(-174.169 -16)" fill="#fff" stroke="#1d53d4" stroke-width="0.2"/>
        <path id="Path_542" data-name="Path 542" d="M182.137,147.655v-3.586a8.069,8.069,0,1,0-16.137,0v3.586a.9.9,0,0,0,.9.9h14.344A.9.9,0,0,0,182.137,147.655Zm-1.793-.9H167.793v-2.69a6.276,6.276,0,1,1,12.551,0Z" transform="translate(-146.859 -125.242)" fill="#fff" stroke="#1d53d4" stroke-width="0.2"/>
      </g>
    </g>
  </g>
</svg>
