<svg xmlns="http://www.w3.org/2000/svg" width="70.175" height="70.162" viewBox="0 0 70.175 70.162">
  <g id="work-step-one-icon" transform="translate(0.089 0.075)">
    <path id="Path_514" data-name="Path 514" d="M282.808,0a1.367,1.367,0,1,0,0,2.735A27.457,27.457,0,0,1,310.234,30.16a1.367,1.367,0,1,0,2.735,0A30.2,30.2,0,0,0,282.808,0Zm0,0" transform="translate(-242.957)" fill="#1c2025" stroke="#fff" stroke-width="0.15"/>
    <path id="Path_515" data-name="Path 515" d="M303.376,83.459a1.368,1.368,0,0,0,1.367-1.367A21.959,21.959,0,0,0,282.81,60.157a1.367,1.367,0,1,0,0,2.735,19.221,19.221,0,0,1,19.2,19.2A1.368,1.368,0,0,0,303.376,83.459Zm0,0" transform="translate(-242.958 -51.931)" fill="#1c2025" stroke="#fff" stroke-width="0.15"/>
    <path id="Path_516" data-name="Path 516" d="M293.781,134.035a1.367,1.367,0,1,0,2.735,0,13.722,13.722,0,0,0-13.706-13.706,1.367,1.367,0,1,0,0,2.734,10.984,10.984,0,0,1,10.972,10.972Zm0,0" transform="translate(-242.958 -103.875)" fill="#1c2025" stroke="#fff" stroke-width="0.15"/>
    <path id="Path_517" data-name="Path 517" d="M281.441,181.851a1.367,1.367,0,0,0,1.367,1.367,2.749,2.749,0,0,1,2.746,2.746,1.367,1.367,0,1,0,2.735,0,5.487,5.487,0,0,0-5.48-5.48A1.367,1.367,0,0,0,281.441,181.851Zm0,0" transform="translate(-242.957 -155.804)" fill="#1c2025" stroke="#fff" stroke-width="0.15"/>
    <path id="Path_518" data-name="Path 518" d="M170.169,316.047a1.367,1.367,0,1,1-1.367-1.367A1.367,1.367,0,0,1,170.169,316.047Zm0,0" transform="translate(-144.54 -271.649)" fill="#1c2025" stroke="#fff" stroke-width="0.15"/>
    <path id="Path_519" data-name="Path 519" d="M37.471,130.557a16.257,16.257,0,0,0,18.642-3.142l2.827-2.827a3.923,3.923,0,0,0,0-5.553L48.015,108.111a3.921,3.921,0,0,0-5.552,0l-4.642,4.642a2.706,2.706,0,0,1-3.336.441,51.3,51.3,0,0,1-4.825-3.5,1.367,1.367,0,0,0-1.731,2.117,53.931,53.931,0,0,0,5.084,3.684,5.455,5.455,0,0,0,6.742-.812l4.643-4.643a1.188,1.188,0,0,1,1.683,0l10.925,10.924a1.19,1.19,0,0,1,0,1.684l-2.828,2.828a13.521,13.521,0,0,1-15.5,2.62A75.774,75.774,0,0,1,4.1,93.353,13.421,13.421,0,0,1,6.73,77.907L9.5,75.142a1.187,1.187,0,0,1,1.682,0L22.1,86.068a1.188,1.188,0,0,1,0,1.683l-4.642,4.642a5.456,5.456,0,0,0-.812,6.742c.789,1.234,1.639,2.452,2.528,3.619a1.367,1.367,0,1,0,2.176-1.657c-.843-1.107-1.651-2.263-2.4-3.435a2.706,2.706,0,0,1,.441-3.336l4.641-4.641a3.922,3.922,0,0,0,0-5.552L13.112,73.209a3.92,3.92,0,0,0-5.551,0L4.8,75.973A16.154,16.154,0,0,0,1.654,94.567a78.488,78.488,0,0,0,35.816,35.99Zm0,0" transform="translate(0 -62.204)" fill="#1d53d4" stroke="#fff" stroke-width="0.15"/>
  </g>
</svg>
