<svg xmlns="http://www.w3.org/2000/svg" width="80.949" height="70.966" viewBox="0 0 80.949 70.966">
  <g id="work-step-three-icon" transform="translate(0.475 0.491)">
    <path id="Path_506" data-name="Path 506" d="M76.874,60.894V52.032a1.562,1.562,0,1,0-3.125,0v8.594H55V27.813a1.564,1.564,0,0,1,1.562-1.562H72.187a1.564,1.564,0,0,1,1.562,1.562V39.532a1.562,1.562,0,1,0,3.125,0V27.813a4.694,4.694,0,0,0-3.125-4.418v-9.36A7.781,7.781,0,0,0,67.684,6.42L39.672.139a5.344,5.344,0,0,0-3.582,9.993L55,19.412v3.983a4.694,4.694,0,0,0-3.125,4.418V31.8L21.434,20.329A4.692,4.692,0,0,0,19.711,20H4.688A4.693,4.693,0,0,0,0,24.688v12.5A1.562,1.562,0,0,0,1.563,38.75H17.188a1.562,1.562,0,0,0,1.562-1.562V32.5h.535a1.572,1.572,0,0,1,.928.306L51.875,54.831v6.063a4.694,4.694,0,0,0-3.125,4.418v3.125A1.562,1.562,0,0,0,50.312,70H78.437A1.562,1.562,0,0,0,80,68.438V65.313a4.694,4.694,0,0,0-3.125-4.418Zm-6.25-37.769h-12.5V20h12.5ZM36.25,5.346a2.219,2.219,0,0,1,2.729-2.159L66.99,9.467a4.667,4.667,0,0,1,3.635,4.568v2.841h-13.7L37.477,7.332A2.223,2.223,0,0,1,36.25,5.346ZM15.625,35.625H3.125V32.5h12.5Zm6.424-5.348a4.72,4.72,0,0,0-2.764-.9H3.125V24.688a1.564,1.564,0,0,1,1.562-1.562H19.711a1.585,1.585,0,0,1,.585.114l.025.01,31.554,11.9V51.024Zm54.826,36.6h-25V65.313a1.564,1.564,0,0,1,1.562-1.562H75.312a1.564,1.564,0,0,1,1.562,1.562Zm0,0" transform="translate(0 0)" fill="#1d53d4" stroke="#fff" stroke-width="0.95"/>
    <path id="Path_507" data-name="Path 507" d="M51.562,277.379a1.562,1.562,0,0,0,1.562-1.562v-6.25a1.562,1.562,0,0,0-3.125,0v6.25A1.562,1.562,0,0,0,51.562,277.379Zm0,0" transform="translate(-42.188 -226.129)" fill="#1c2025" stroke="#fff" stroke-width="0.95"/>
    <path id="Path_508" data-name="Path 508" d="M50,355.816a1.562,1.562,0,1,0,3.125,0v-6.25a1.562,1.562,0,1,0-3.125,0Zm0,0" transform="translate(-42.188 -293.629)" fill="#1c2025" stroke="#fff" stroke-width="0.95"/>
    <path id="Path_509" data-name="Path 509" d="M1.562,277.379a1.562,1.562,0,0,0,1.562-1.562v-6.25a1.562,1.562,0,0,0-3.125,0v6.25A1.562,1.562,0,0,0,1.562,277.379Zm0,0" transform="translate(0 -226.129)" fill="#1c2025" stroke="#fff" stroke-width="0.95"/>
    <path id="Path_510" data-name="Path 510" d="M1.562,357.379a1.562,1.562,0,0,0,1.562-1.562v-6.25a1.562,1.562,0,1,0-3.125,0v6.25A1.562,1.562,0,0,0,1.562,357.379Zm0,0" transform="translate(0 -293.629)" fill="#1c2025" stroke="#fff" stroke-width="0.95"/>
    <path id="Path_511" data-name="Path 511" d="M101.562,277.379a1.562,1.562,0,0,0,1.562-1.562v-6.25a1.562,1.562,0,0,0-3.125,0v6.25A1.562,1.562,0,0,0,101.562,277.379Zm0,0" transform="translate(-84.375 -226.129)" fill="#1c2025" stroke="#fff" stroke-width="0.95"/>
    <path id="Path_512" data-name="Path 512" d="M100,355.816a1.562,1.562,0,1,0,3.125,0v-6.25a1.562,1.562,0,1,0-3.125,0Zm0,0" transform="translate(-84.375 -293.629)" fill="#1c2025" stroke="#fff" stroke-width="0.95"/>
    <path id="Path_513" data-name="Path 513" d="M473.562,283a1.563,1.563,0,1,0,1.563,1.563A1.563,1.563,0,0,0,473.562,283Zm0,0" transform="translate(-398.251 -238.785)" fill="#1c2025" stroke="#fff" stroke-width="0.95"/>
  </g>
</svg>
