<svg xmlns="http://www.w3.org/2000/svg" width="70.664" height="70.65" viewBox="0 0 70.664 70.65">
  <g id="work-step-two-icon" transform="translate(0.325 0.325)">
    <path id="Path_520" data-name="Path 520" d="M66.855,14.831a6.29,6.29,0,0,0-8.591,2.3L54.14,24.274V4.1a4.106,4.106,0,0,0-4.1-4.1H4.1A4.106,4.106,0,0,0,0,4.1V55.713a1.367,1.367,0,0,0,.4.967L13.32,69.6a1.367,1.367,0,0,0,.967.4H27.5a1.367,1.367,0,0,0,0-2.734H15.654v-8.83a4.106,4.106,0,0,0-4.1-4.1H2.734V4.1A1.368,1.368,0,0,1,4.1,2.735H50.039A1.368,1.368,0,0,1,51.406,4.1V29.01L42.1,45.136a1.4,1.4,0,0,0-.261-.026H12.3a1.367,1.367,0,0,0,0,2.734H40.532l-1.9,3.284a1.372,1.372,0,0,0-.179.58l-.864,11.341a1.367,1.367,0,0,0,2.135,1.233l9.39-6.419a1.376,1.376,0,0,0,.412-.445l1.877-3.251V65.9a1.368,1.368,0,0,1-1.367,1.367H39.808a1.367,1.367,0,0,0,0,2.734H50.039a4.106,4.106,0,0,0,4.1-4.1V49.431L69.156,23.422a6.3,6.3,0,0,0-2.3-8.591Zm-55.3,42.238a1.368,1.368,0,0,1,1.367,1.367v6.885L4.668,57.069Zm29.466-2.987,4.762,2.749-5.244,3.585Zm6.826.784-6.157-3.555L57.63,23.7l6.157,3.555ZM66.789,22.055l-1.634,2.83L59,21.331l1.634-2.83a3.555,3.555,0,0,1,6.157,3.555Zm0,0" transform="translate(0 0)" fill="#1d53d4" stroke="#fff" stroke-width="0.65"/>
    <path id="Path_521" data-name="Path 521" d="M148.271,387.305a1.367,1.367,0,0,0-1.367-1.367H135.035a1.367,1.367,0,0,0,0,2.734H146.9A1.367,1.367,0,0,0,148.271,387.305Zm0,0" transform="translate(-115.393 -333.173)" fill="#1c2025" stroke="#fff" stroke-width="0.65"/>
    <path id="Path_522" data-name="Path 522" d="M165.248,273.926H144.324a1.367,1.367,0,0,0,0,2.734h20.924a1.367,1.367,0,0,0,0-2.734Zm0,0" transform="translate(-123.412 -236.475)" fill="#1c2025" stroke="#fff" stroke-width="0.65"/>
    <path id="Path_523" data-name="Path 523" d="M81.367,220.672H110.9a1.367,1.367,0,1,0,0-2.734H81.367a1.367,1.367,0,1,0,0,2.734Zm0,0" transform="translate(-69.063 -188.141)" fill="#1c2025" stroke="#fff" stroke-width="0.65"/>
    <path id="Path_524" data-name="Path 524" d="M110.9,105.9H81.367a1.367,1.367,0,0,0,0,2.734H110.9a1.367,1.367,0,0,0,0-2.734Zm0,0" transform="translate(-69.063 -91.419)" fill="#1c2025" stroke="#fff" stroke-width="0.65"/>
    <path id="Path_525" data-name="Path 525" d="M232.173,161.918H221.848a1.367,1.367,0,0,0,0,2.734h10.325a1.367,1.367,0,0,0,0-2.734Zm0,0" transform="translate(-190.337 -139.78)" fill="#1c2025" stroke="#fff" stroke-width="0.65"/>
    <path id="Path_526" data-name="Path 526" d="M81.367,164.652H93.512a1.367,1.367,0,1,0,0-2.734H81.367a1.367,1.367,0,0,0,0,2.734Zm0,0" transform="translate(-69.063 -139.78)" fill="#1c2025" stroke="#fff" stroke-width="0.65"/>
    <path id="Path_527" data-name="Path 527" d="M81.367,276.66h2.241a1.367,1.367,0,0,0,0-2.734H81.367a1.367,1.367,0,0,0,0,2.734Zm0,0" transform="translate(-69.063 -236.475)" fill="#1c2025" stroke="#fff" stroke-width="0.65"/>
    <path id="Path_528" data-name="Path 528" d="M237.539,492a1.367,1.367,0,1,0,.967.4A1.375,1.375,0,0,0,237.539,492Zm0,0" transform="translate(-203.883 -424.734)" fill="#1c2025" stroke="#fff" stroke-width="0.65"/>
  </g>
</svg>
