<svg xmlns="http://www.w3.org/2000/svg" width="15.681" height="20.953" viewBox="0 0 15.681 20.953">
  <g id="yelp-icon" opacity="0.5">
    <g id="yelp" transform="translate(0 0)">
      <path id="Path_475" data-name="Path 475" d="M34.689,65.368l-2.907,3.509a.951.951,0,0,0,.393,1.493L35,71.5a.944.944,0,0,0,1.283-.864l.131-4.609a.972.972,0,0,0-1.728-.655Z" transform="translate(-28.56 -50.607)" fill="#fff"/>
      <path id="Path_476" data-name="Path 476" d="M25.755,48.492,21.46,46.947a.934.934,0,0,0-1.257.864l-.1,3.038a.961.961,0,0,0,1.231.943l4.4-1.467A.968.968,0,0,0,25.755,48.492Z" transform="translate(-20.097 -37.24)" fill="#fff"/>
      <path id="Path_477" data-name="Path 477" d="M56.992,39.075l4.4-1.2a.959.959,0,0,0,.55-1.44l-1.676-2.54a.943.943,0,0,0-1.545-.052L55.944,37.53A.988.988,0,0,0,56.992,39.075Z" transform="translate(-46.411 -27.325)" fill="#fff"/>
      <path id="Path_478" data-name="Path 478" d="M32.149,11.2a1.116,1.116,0,0,0-1.414-1.126l-3.483.943a1.123,1.123,0,0,0-.629,1.728l4.007,6.914a1.15,1.15,0,0,0,2.147-.681Z" transform="translate(-24.764 -10.034)" fill="#fff"/>
      <path id="Path_479" data-name="Path 479" d="M61.332,63.041l-4.426-1.362a.984.984,0,0,0-1.1,1.493l2.619,3.745a.931.931,0,0,0,1.519.026l1.833-2.436A.917.917,0,0,0,61.332,63.041Z" transform="translate(-46.325 -48.123)" fill="#fff"/>
    </g>
  </g>
</svg>
